HIERARCHY
ROOT Hips
{
	OFFSET	0.00	0.00	0.00
	CHANNELS 6 Xposition Yposition Zposition Zrotation Xrotation Yrotation
	JOINT LeftUpLeg
	{
		OFFSET	 0.126116	-0.065224	 0.014019
		CHANNELS 3 Zrotation Xrotation Yrotation
		JOINT LeftLeg
		{
			OFFSET	 0.000000	 0.569914	 0.000000
			CHANNELS 3 Zrotation Xrotation Yrotation
			JOINT LeftFoot
			{
				OFFSET	 0.000000	 0.544423	 0.000000
				CHANNELS 3 Zrotation Xrotation Yrotation
				JOINT LeftToeBase
				{
					OFFSET	 0.000000	 0.207117	 0.000000
					CHANNELS 3 Zrotation Xrotation Yrotation
					End Site
					{
						OFFSET	 0.000000	 0.207117	 0.000000
					}
				}
			}
		}
	}
	JOINT RightUpLeg
	{
		OFFSET	-0.124023	-0.065224	 0.008373
		CHANNELS 3 Zrotation Xrotation Yrotation
		JOINT RightLeg
		{
			OFFSET	 0.000000	 0.570047	 0.000000
			CHANNELS 3 Zrotation Xrotation Yrotation
			JOINT RightFoot
			{
				OFFSET	 0.000000	 0.544354	 0.000000
				CHANNELS 3 Zrotation Xrotation Yrotation
				JOINT RightToeBase
				{
					OFFSET	 0.000000	 0.207540	 0.000000
					CHANNELS 3 Zrotation Xrotation Yrotation
					End Site
					{
						OFFSET	 0.000000	 0.207540	 0.000000
					}
				}
			}
		}
	}
	JOINT Spine
	{
		OFFSET	 0.000184	 0.117403	 0.007763
		CHANNELS 3 Zrotation Xrotation Yrotation
		JOINT Spine1
		{
			OFFSET	 0.000000	 0.137269	 0.000000
			CHANNELS 3 Zrotation Xrotation Yrotation
			JOINT Spine2
			{
				OFFSET	 0.000000	 0.156879	 0.000000
				CHANNELS 3 Zrotation Xrotation Yrotation
				JOINT LeftShoulder
				{
					OFFSET	 0.080501	 0.160143	 0.002496
					CHANNELS 3 Zrotation Xrotation Yrotation
					JOINT LeftArm
					{
						OFFSET	 0.000000	 0.164363	 0.000000
						CHANNELS 3 Zrotation Xrotation Yrotation
						JOINT LeftForeArm
						{
							OFFSET	 0.000000	 0.364576	 0.000000
							CHANNELS 3 Zrotation Xrotation Yrotation
							JOINT LeftHand
							{
								OFFSET	 0.000000	 0.360812	 0.000000
								CHANNELS 3 Zrotation Xrotation Yrotation
								JOINT LeftHandIndex1
								{
									OFFSET	 0.000000	 0.086006	 0.000000
									CHANNELS 3 Zrotation Xrotation Yrotation
									JOINT LeftHandIndex2
									{
										OFFSET	 0.000000	 0.047237	 0.000000
										CHANNELS 3 Zrotation Xrotation Yrotation
										JOINT LeftHandIndex3
										{
											OFFSET	-0.004284	 0.038165	 0.000551
											CHANNELS 3 Zrotation Xrotation Yrotation
											End Site
											{
												OFFSET	-0.004284	 0.038165	 0.000551
											}
										}
									}
								}
							}
						}
					}
				}
				JOINT Neck
				{
					OFFSET	 0.000000	 0.176489	 0.000000
					CHANNELS 3 Zrotation Xrotation Yrotation
					JOINT Head
					{
						OFFSET	 0.000000	 0.077941	 0.001747
						CHANNELS 3 Zrotation Xrotation Yrotation
						End Site
						{
							OFFSET	 0.000000	 0.077941	 0.001747
						}
					}
				}
				JOINT RightShoulder
				{
					OFFSET	-0.080363	 0.159706	-0.000306
					CHANNELS 3 Zrotation Xrotation Yrotation
					JOINT RightArm
					{
						OFFSET	 0.000000	 0.164196	 0.000000
						CHANNELS 3 Zrotation Xrotation Yrotation
						JOINT RightForeArm
						{
							OFFSET	 0.000000	 0.365611	 0.000000
							CHANNELS 3 Zrotation Xrotation Yrotation
							JOINT RightHand
							{
								OFFSET	 0.000000	 0.360648	 0.000000
								CHANNELS 3 Zrotation Xrotation Yrotation
								JOINT RightHandIndex1
								{
									OFFSET	 0.000000	 0.069977	 0.000000
									CHANNELS 3 Zrotation Xrotation Yrotation
									JOINT RightHandIndex2
									{
										OFFSET	 0.000000	 0.052305	 0.000000
										CHANNELS 3 Zrotation Xrotation Yrotation
										JOINT RightHandIndex3
										{
											OFFSET	 0.009002	 0.042196	 0.000782
											CHANNELS 3 Zrotation Xrotation Yrotation
											End Site
											{
												OFFSET	 0.009002	 0.042196	 0.000782
											}
										}
									}
								}
							}
						}
					}
				}
			}
		}
	}
}
MOTION
Frames:    12
Frame Time: 0.03333334
-0.045969	 1.234047	-1.250420	-3.224639	 1.326610	-174.097400	 166.259000	 6.501673	 12.081640	 4.125179	-28.309470	 6.106306	 6.136054	 76.843040	 1.546920	 1.517646	 31.306980	-2.814184	-176.521000	 28.127100	-11.125850	-5.885985	-53.636420	 6.295630	 14.088870	 71.267090	-9.718277	-1.670869	 33.165260	 2.887355	-1.438612	 8.563046	-2.827119	 0.385235	 3.546768	-0.809050	-0.231747	-3.951855	-0.750083	-121.357100	 7.490271	 94.068630	 27.707000	 48.543180	-9.030164	 5.101391	-0.263629	-0.072104	 16.020550	-13.304370	 6.133796	 4.632795	 18.884810	-1.659563	-5.863876	 21.495680	 2.376410	 5.332595	 4.364992	-0.168585	-0.169592	-5.015260	-0.139085	-2.087202	-2.063254	-3.142536	 118.414600	-0.052624	-90.807880	 17.111550	 53.282630	-19.362290	-20.923160	-0.805046	-0.090016	 0.361064	 2.380362	-13.103860	-2.406844	 25.760040	 1.319578	 15.796080	 44.754570	-11.753230	-8.529905	 23.757140	-1.212119
-0.045750	 1.232805	-1.261348	-3.275140	 1.130868	-173.918600	 166.214600	 6.186292	 12.274830	 4.122696	-28.475190	 6.229983	 7.399211	 77.296210	 0.364719	 1.529965	 31.459880	-2.820004	-176.961900	 29.695690	-10.586080	-5.944040	-53.602230	 6.385777	 17.609280	 72.832240	-12.361420	-1.676238	 33.229390	 2.890044	-1.434478	 8.436036	-2.980556	 0.355032	 3.559917	-0.860841	-0.224575	-3.992928	-0.759798	-121.353200	 7.643312	 94.144650	 27.171310	 48.281620	-8.223433	 7.570446	-0.390607	-0.057988	 15.428850	-13.940560	 6.094202	 4.652574	 18.949640	-1.670122	-5.863706	 21.552640	 2.382699	 5.335041	 4.422291	-0.167545	-0.172391	-5.028274	-0.126212	-2.039833	-2.129462	-3.149306	 118.393400	-0.142910	-90.765530	 17.882090	 53.361930	-19.713020	-20.867500	-0.803028	-0.089276	 0.885720	 2.465937	-13.515070	-2.335509	 25.226810	 1.281688	 15.663520	 44.234130	-11.547740	-8.531702	 23.221900	-1.176545
-0.045299	 1.230346	-1.283645	-3.352720	 0.818268	-173.637700	 166.210800	 5.365995	 12.466550	 4.144348	-28.600920	 6.517414	 9.826759	 78.188870	-1.899607	 1.549593	 31.702510	-2.829338	-177.817700	 32.637270	-9.830402	-5.751160	-53.116490	 6.860323	 23.681980	 74.309890	-16.980880	-1.684773	 33.331150	 2.894332	-1.427924	 8.233921	-3.244313	 0.329603	 3.652439	-0.855262	-0.230341	-4.091256	-0.885117	-121.347500	 7.886167	 94.265270	 23.327310	 47.944360	-4.725152	 16.504030	-0.842225	 0.038361	 11.486310	-14.647230	 5.890779	 4.684000	 19.052530	-1.686934	-5.863448	 21.643040	 2.392683	 5.338921	 4.513215	-0.165900	-0.176826	-5.048925	-0.105786	-1.964665	-2.234695	-3.159944	 118.359800	-0.286178	-90.698390	 19.287230	 53.499090	-20.419130	-20.567240	-0.791901	-0.085154	 1.373390	 2.532892	-14.221690	-2.223702	 24.380330	 1.223376	 15.460740	 43.407360	-11.228620	-8.533794	 22.372290	-1.120402
-0.044543	 1.226405	-1.319872	-3.449857	 0.403963	-173.271500	 166.340900	 3.764289	 12.680120	 4.110664	-28.405200	 6.866676	 13.902730	 79.490450	-5.710917	 1.575540	 32.021420	-2.841792	-179.320000	 36.670300	-8.476462	-5.345015	-51.089330	 7.595172	 30.654510	 74.580260	-22.045950	-1.696020	 33.464890	 2.900002	-1.418918	 7.965723	-3.621956	 0.329438	 3.865087	-0.953627	-0.246789	-4.263323	-0.977224	-121.340700	 8.205392	 94.423910	 22.777940	 46.594760	-3.541890	 23.482480	-1.181216	 0.161697	 8.029062	-15.392810	 5.473469	 4.725384	 19.187740	-1.709138	-5.863135	 21.761850	 2.405813	 5.344018	 4.632716	-0.163747	-0.182644	-5.076069	-0.078942	-1.865848	-2.372879	-3.173712	 118.316000	-0.474526	-90.610300	 21.126000	 53.716620	-21.338130	-19.572150	-0.755158	-0.071722	 1.393611	 2.539596	-15.226340	-2.079240	 23.267310	 1.150023	 15.207710	 42.319200	-10.821540	-8.535172	 21.255320	-1.047145
-0.043392	 1.220742	-1.371517	-3.564093	-0.120099	-172.813900	 166.717300	 1.121982	 12.916270	 3.947037	-27.443810	 7.251328	 20.409490	 80.974760	-11.843470	 1.608401	 32.422240	-2.857751	 178.154700	 40.672890	-6.065658	-4.393869	-45.535470	 8.929741	 35.259270	 73.034390	-24.430050	-1.710204	 33.632980	 2.907185	-1.406483	 7.626894	-4.129227	 0.362711	 4.181816	-1.193056	-0.274959	-4.503209	-1.011709	-121.333400	 8.606675	 94.623440	 25.641240	 44.137630	-4.679240	 28.093600	-1.395912	 0.265366	 5.258489	-16.075870	 4.764594	 4.777527	 19.357670	-1.737219	-5.862782	 21.911180	 2.422333	 5.350419	 4.782923	-0.161055	-0.189939	-5.110193	-0.045202	-1.741616	-2.546743	-3.190692	 118.261300	-0.711393	-90.499730	 22.721010	 54.107490	-21.896730	-16.994430	-0.658877	-0.039848	 0.518609	 2.508780	-16.560210	-1.901449	 21.867830	 1.062931	 14.910150	 40.949420	-10.328450	-8.534736	 19.851110	-0.955844
-0.041853	 1.213801	-1.432301	-3.688845	-0.739509	-172.273500	 167.361700	-2.302918	 13.216050	 3.629564	-25.529630	 7.657749	 29.149590	 82.161810	-20.171830	 1.647568	 32.895580	-2.877042	 174.828300	 42.265220	-2.533181	-2.980226	-34.661260	 10.818630	 36.260090	 70.220120	-23.133300	-1.727023	 33.831510	 2.915751	-1.390795	 7.225782	-4.744114	 0.411573	 4.459651	-1.357781	-0.322942	-4.741250	-1.186638	-121.326700	 9.080591	 94.859290	 31.089310	 40.709830	-7.313628	 29.028840	-1.438405	 0.288574	 4.617683	-16.849900	 3.890262	 4.839289	 19.558310	-1.770630	-5.862427	 22.087540	 2.441861	 5.357970	 4.960305	-0.157897	-0.198528	-5.150495	-0.005361	-1.594859	-2.751957	-3.210258	 118.197300	-0.991238	-90.369460	 22.493830	 54.839640	-20.803810	-11.663910	-0.455765	 0.012059	-1.494757	 2.545614	-18.153740	-1.696572	 20.215070	 0.967100	 14.586050	 39.329690	-9.770727	-8.531192	 18.193050	-0.849011
-0.039559	 1.205784	-1.494315	-3.749249	-1.321345	-171.682400	 168.116200	-5.607627	 13.554610	 3.373531	-23.939240	 7.903146	 36.802660	 82.908180	-27.450640	 1.758238	 34.207130	-2.933100	 172.358900	 39.870640	 0.347477	-1.549106	-19.774670	 12.738080	 34.636450	 67.311930	-19.684640	-1.749643	 34.097100	 2.927353	-1.304379	 6.831656	-5.510891	 0.449686	 4.502051	-1.528276	-0.358600	-4.861028	-1.366161	-121.308600	 9.550839	 95.092160	 36.415180	 37.375300	-9.664984	 27.117810	-1.351205	 0.242028	 6.722493	-18.088010	 3.217015	 4.925574	 19.783110	-1.814278	-5.862056	 22.318890	 2.467517	 5.368589	 5.210041	-0.153492	-0.204846	-5.190767	 0.036653	-1.443507	-2.934754	-3.176989	 118.164900	-1.292616	-90.230450	 20.521900	 55.596070	-18.065630	-5.114511	-0.200980	 0.049515	-3.379937	 2.592893	-20.021370	-1.493165	 18.226930	 0.877627	 14.234580	 37.393370	-9.136244	-8.522816	 16.219130	-0.722924
-0.033533	 1.190859	-1.583062	-3.319820	-1.123766	-171.284800	 169.482500	-9.992290	 13.425060	 3.465138	-24.512950	 6.527004	 29.451910	 83.532820	-19.362420	 2.352415	 40.608640	-3.269631	 173.329500	 37.611020	-0.942647	-0.937781	-12.279430	 11.608600	 24.722920	 62.394240	-11.233040	-1.794883	 34.623540	 2.950833	-0.742554	 6.827983	-6.943300	 0.657759	 4.598276	-1.884806	-0.367331	-4.859077	-1.372313	-121.208300	 9.569066	 95.090770	 39.979170	 35.496030	-12.830290	 25.514400	-1.276832	 0.205245	 6.902351	-18.886930	 2.669080	 5.115783	 19.985290	-1.893352	-5.861664	 22.751860	 2.515647	 5.392529	 5.774261	-0.143722	-0.188711	-5.194386	 0.056966	-1.395543	-2.783977	-2.783271	 118.393000	-1.481204	-90.148930	 22.869180	 54.963920	-18.531220	-5.107738	-0.200709	 0.049645	-2.491783	 1.393273	-22.872900	-1.447477	 15.525980	 0.864081	 13.826210	 34.849840	-8.349459	-8.505442	 13.662970	-0.560909
-0.026956	 1.177150	-1.662562	-2.849026	-0.881998	-170.823100	 170.750400	-13.341160	 13.216370	 3.723630	-26.103470	 5.126152	 16.757660	 83.446470	-6.221745	 3.173691	 47.834100	-3.815333	 176.571300	 41.194770	-4.392316	-1.814860	-22.839860	 9.965279	 27.247040	 68.137900	-13.714250	-1.846612	 35.217710	 2.978127	-0.117933	 6.820555	-8.445258	 0.760427	 4.162869	-2.163572	-0.328764	-4.602917	-1.376731	-121.094900	 9.589666	 95.089190	 39.618340	 35.770710	-13.589880	 26.091750	-1.303768	 0.218234	 8.751876	-20.888280	 2.902475	 5.331120	 20.213190	-1.983583	-5.861695	 23.240540	 2.570152	 5.419463	 6.411096	-0.132967	-0.170496	-5.198462	 0.079894	-1.342697	-2.613333	-2.339066	 118.650800	-1.693677	-90.055980	 25.065250	 54.130520	-18.689450	-6.611826	-0.259579	 0.043519	 0.440616	 0.244457	-25.790700	-1.397328	 12.477120	 0.851629	 13.428870	 31.973740	-7.514253	-8.477194	 10.777670	-0.378944
-0.018698	 1.168206	-1.735673	-1.662967	-0.004456	-169.345300	 175.407900	-22.778350	 13.466340	 2.655354	-19.265670	 2.984804	 2.389812	 68.656810	 9.011418	 5.556460	 61.879680	-4.954509	 178.945000	 37.865090	-6.680863	-1.679576	-21.295590	 10.630810	 15.238880	 59.064790	-9.074706	-1.829104	 35.017540	 2.968837	 1.175369	 6.763737	-10.454060	 1.178341	 3.523383	-2.839675	-0.282993	-4.036406	-1.509213	-121.039000	 9.265973	 94.921670	 45.131310	 34.347670	-16.707400	 15.600860	-0.797279	 0.025403	 10.848610	-19.296820	 1.241837	 5.309974	 20.537250	-1.998135	-5.862531	 23.893210	 2.643263	 5.457374	 7.311055	-0.118250	-0.136967	-5.175014	 0.078347	-1.568970	-1.817459	-1.977151	 119.113700	-2.156440	-89.848590	 28.386590	 52.700940	-20.220660	-5.106501	-0.200662	 0.049593	-3.093455	-0.252822	-27.087020	-1.508464	 10.114790	 0.895356	 13.172230	 29.830400	-6.923783	-8.451481	 8.715399	-0.248964
-0.011165	 1.177759	-1.855694	-0.646319	 1.060167	-169.068000	 174.644900	-15.367410	 10.849820	 5.620807	-36.462280	 4.944971	 2.116060	 64.750630	 7.914063	 6.643679	 66.240320	-5.506515	-176.404000	 34.892010	-10.577520	-2.415350	-29.269260	 9.562540	 7.464111	 60.465350	-6.292884	-1.760225	 34.220830	 2.932812	 2.114256	 6.986487	-10.268970	 1.031081	 2.859444	-2.649025	-0.074541	-3.462753	-1.520051	-120.904100	 8.811907	 94.683070	 36.241540	 39.496740	-11.815010	 20.111640	-1.019375	 0.096918	 8.306602	-17.096470	 2.377665	 5.211998	 21.189070	-2.007829	-5.864827	 24.697340	 2.733869	 5.503325	 8.406734	-0.101102	-0.088381	-5.119445	 0.034802	-1.752557	-1.239816	-1.936981	 119.495500	-2.222607	-89.823080	 33.628920	 51.111990	-24.502440	-16.908210	-0.655628	-0.038873	 1.782284	-0.529700	-24.559290	-1.705244	 10.032370	 0.975999	 13.172390	 29.831770	-6.924153	-8.449112	 8.541961	-0.238020
-0.006262	 1.191834	-1.966153	 0.007133	 1.998783	-170.904300	 173.448400	-5.825212	 7.384593	 9.705230	-51.823610	 9.748999	 4.552387	 68.291500	 3.867395	 4.138223	 54.612930	-3.762045	-172.523700	 30.818460	-12.996350	-2.913261	-34.055220	 6.276990	-0.542309	 65.991940	 1.388434	-1.652145	 32.940900	 2.878019	 2.366911	 7.564717	-7.965054	 0.926317	 2.641911	-2.199845	-0.045347	-3.220111	-1.310490	-120.634900	 8.319691	 94.416280	 27.232220	 43.681310	-7.599749	 21.733420	-1.097733	 0.126904	 5.062146	-13.883520	 5.085907	 5.110385	 22.257900	-2.043485	-5.869411	 25.652790	 2.842346	 5.556357	 9.677039	-0.082275	-0.024886	-5.031088	-0.056135	-1.757388	-1.216127	-2.302149	 119.685600	-1.645743	-90.099240	 28.611320	 51.685390	-22.063660	-20.329340	-0.783161	-0.081834	 0.618261	-1.687631	-19.652870	-1.961900	 12.750860	 1.100364	 13.487700	 32.430090	-7.643312	-8.474888	 10.576120	-0.366239
